<svg xmlns="http://www.w3.org/2000/svg" xmlns:xlink="http://www.w3.org/1999/xlink" width="122" height="37.053" viewBox="0 0 122 37.053">
  <defs>
    <clipPath id="clip-path">
      <rect id="Rectangle_3584" data-name="Rectangle 3584" width="120" height="36.053" fill="none"/>
    </clipPath>
    <clipPath id="clip-path-2">
      <path id="Path_130" data-name="Path 130" d="M160.875,27.519a19.739,19.739,0,0,0,.872,2.3s.476-1.03,5.391-1.03c0,0-1.268-1.744-1.189-1.982l-3.725-.792s-1.269,1.347-1.348,1.506" transform="translate(-160.875 -26.013)" fill="none"/>
    </clipPath>
    <linearGradient id="linear-gradient" x1="-13.864" y1="3.072" x2="-13.777" y2="3.072" gradientUnits="objectBoundingBox">
      <stop offset="0" stop-color="#f58634"/>
      <stop offset="1" stop-color="#ac3335"/>
    </linearGradient>
    <clipPath id="clip-path-3">
      <path id="Path_131" data-name="Path 131" d="M162.3,19.317c0,.022.025.026,0,0m.678-2.567a15.93,15.93,0,0,0-1.031,1.427s0,.872.317,1.11a.351.351,0,0,1,.036.03c-.009-.091.329-.506,5.83-.506a6.678,6.678,0,0,1-.555-1.9,19.055,19.055,0,0,0-3.346-.439,1.94,1.94,0,0,0-1.251.28" transform="translate(-161.942 -16.469)" fill="none"/>
    </clipPath>
    <linearGradient id="linear-gradient-2" x1="-17.052" y1="4.169" x2="-16.947" y2="4.169" xlink:href="#linear-gradient"/>
    <clipPath id="clip-path-4">
      <path id="Path_132" data-name="Path 132" d="M162.119,16.914c.159-2.933,12.526-1.744,15.221-1.744a8.739,8.739,0,0,0-2.7-3.171,32.135,32.135,0,0,0-4.894-.4c-4.079,0-8.6.969-7.631,5.315" transform="translate(-161.987 -11.599)" fill="none"/>
    </clipPath>
    <linearGradient id="linear-gradient-3" x1="-5.589" y1="2.926" x2="-5.554" y2="2.926" gradientUnits="objectBoundingBox">
      <stop offset="0" stop-color="#ed3237"/>
      <stop offset="1" stop-color="#f58634"/>
    </linearGradient>
    <clipPath id="clip-path-5">
      <path id="Path_133" data-name="Path 133" d="M159.762,23.192a5.686,5.686,0,0,0,1.506,4.836c-2.061-4.6,12.843-2.537,15.934-2.537a7.708,7.708,0,0,0,.159-1.9c0-.475-.08-.951-.08-1.348-1.583-.087-5.485-.639-9.374-.639-3.123,0-6.239.355-8.145,1.59" transform="translate(-159.694 -21.602)" fill="none"/>
    </clipPath>
    <linearGradient id="linear-gradient-4" x1="-4.884" y1="2.041" x2="-4.854" y2="2.041" xlink:href="#linear-gradient-3"/>
    <clipPath id="clip-path-6">
      <path id="Path_134" data-name="Path 134" d="M163.009,33.021c.317,1.11,1.665,2.7,2.141,2.7l9.116.08a9.336,9.336,0,0,0,3.171-3.171c-1.514-.092-5.733-.475-9.236-.475-2.552,0-4.724.2-5.192.872" transform="translate(-163.009 -32.149)" fill="none"/>
    </clipPath>
    <linearGradient id="linear-gradient-5" x1="-6.502" y1="2.477" x2="-6.462" y2="2.477" xlink:href="#linear-gradient-3"/>
    <clipPath id="clip-path-7">
      <rect id="Rectangle_3590" data-name="Rectangle 3590" width="122" height="37.053" fill="none"/>
    </clipPath>
  </defs>
  <g id="Group_4106" data-name="Group 4106" transform="translate(0 0)">
    <g id="Group_4093" data-name="Group 4093" transform="translate(0 0)">
      <g id="Group_4092" data-name="Group 4092" clip-path="url(#clip-path)">
        <path id="Path_127" data-name="Path 127" d="M145.277,47.478l1.347-3.488,1.427,3.488Zm4.6,4.36h3.171l-4.836-10.86H145.2l-4.836,10.86h3.091l.872-2.141h4.6Zm-12.525,0h3.091V40.978h-3.091Zm-11.891,0h4.994l.475-2.457H128.55V43.435h1.981a3.54,3.54,0,0,1,1.586.317,2.334,2.334,0,0,1,1.11,1.03,3.38,3.38,0,0,1,0,3.25.789.789,0,0,1-.317.4l2.22,1.348c.08.079.159.079.238.159a3.577,3.577,0,0,0,.872-1.348,6.34,6.34,0,0,0,0-4.519,6.534,6.534,0,0,0-1.268-1.744,9.179,9.179,0,0,0-1.9-1.11,8.4,8.4,0,0,0-2.457-.4h-5.153Zm-6.5-2.378V47.478h4.836v-2.3h-4.836V43.356h5.47V40.978h-8.482v10.86h8.72V49.46Zm-4.36,2.378-.079-10.86h-2.537l-3.726,6.262-3.805-6.262h-2.536v10.86h2.854V46.21l2.775,4.518h1.348l2.774-4.677.08,5.708Z" transform="translate(-41.349 -16.561)" fill="#4a4a4d" fill-rule="evenodd"/>
        <path id="Path_128" data-name="Path 128" d="M151.631,53.384l2.537,1.586a.579.579,0,0,1,.316.793c0,.079,0,.079-.079.079l-3.329,1.744s-.872.317-.872-.475l.634-3.409a.694.694,0,0,1,.714-.476c0,.08.08.08.08.159" transform="translate(-60.942 -21.595)" fill="#f58733" fill-rule="evenodd"/>
        <path id="Path_129" data-name="Path 129" d="M86.8,6.454a8.974,8.974,0,0,0-2.854.476,6.435,6.435,0,0,0-2.3,1.506V6.692h-5.47V22.785h5.707v-7.69a3.658,3.658,0,0,1,.476-2.22,2.33,2.33,0,0,1,1.109-1.189,3.051,3.051,0,0,1,1.665-.4,2.37,2.37,0,0,1,1.982.793,3.729,3.729,0,0,1,.714,2.537v8.323h5.707V13.589a8.971,8.971,0,0,0-.475-3.25A5.522,5.522,0,0,0,89.5,6.771a7.64,7.64,0,0,0-2.7-.317M68.016,22.864h5.628V6.692H67.937Zm-7.452,0h6.9l-7.373-9.275,6.818-6.9H60.089L54.3,12.32V.667H48.594v22.2H54.3V18.9l1.665-1.744Zm-15.458.317c.475,0,.872-.08,1.347-.08a8.3,8.3,0,0,0,1.348-.317L47.564,18.5a1.464,1.464,0,0,1-.555.159,2.2,2.2,0,0,1-.713.079,1.314,1.314,0,0,1-1.269-.475,1.775,1.775,0,0,1-.475-1.348V.747H38.844V17.235a5.836,5.836,0,0,0,.793,3.25,4.708,4.708,0,0,0,2.141,1.982,7.852,7.852,0,0,0,3.33.714M27.19,18.662a3.4,3.4,0,0,1-1.744-.475,2.8,2.8,0,0,1-1.189-1.348,4.717,4.717,0,0,1-.476-2.141,4.622,4.622,0,0,1,.476-2.061,3.658,3.658,0,0,1,1.189-1.268,3.861,3.861,0,0,1,3.488,0,2.627,2.627,0,0,1,1.189,1.268A4.63,4.63,0,0,1,30.6,14.7a5.6,5.6,0,0,1-.475,2.22,4.86,4.86,0,0,1-1.189,1.348,4.324,4.324,0,0,1-1.744.4m3.33-11.97V8.119A5.687,5.687,0,0,0,28.538,6.85,5.524,5.524,0,0,0,26,6.454a7.94,7.94,0,0,0-3.091.555,7.839,7.839,0,0,0-2.537,1.665,7.58,7.58,0,0,0-1.744,2.616,10.528,10.528,0,0,0,0,6.976,8.275,8.275,0,0,0,1.744,2.7,7.418,7.418,0,0,0,2.537,1.665A7.94,7.94,0,0,0,26,23.181a8.159,8.159,0,0,0,2.775-.476,4.569,4.569,0,0,0,1.982-1.427v1.586h5.47V6.692ZM14.11,22.864h6.9L11.97,11.211,21.8.747H15.3L5.866,10.656V.667H0V22.943H5.866V17.711l2.22-2.378Z" transform="translate(0 -0.271)" fill="#0354d6"/>
      </g>
    </g>
    <g id="Group_4095" data-name="Group 4095" transform="translate(95.604 15.459)">
      <g id="Group_4094" data-name="Group 4094" clip-path="url(#clip-path-2)">
        <rect id="Rectangle_3585" data-name="Rectangle 3585" width="6.874" height="7.27" transform="matrix(0.622, -0.783, 0.783, 0.622, -1.853, 2.333)" fill="url(#linear-gradient)"/>
      </g>
    </g>
    <g id="Group_4097" data-name="Group 4097" transform="translate(96.238 9.787)">
      <g id="Group_4096" data-name="Group 4096" clip-path="url(#clip-path-3)">
        <rect id="Rectangle_3586" data-name="Rectangle 3586" width="5.659" height="6.778" transform="translate(-1.273 2.104) rotate(-58.835)" fill="url(#linear-gradient-2)"/>
      </g>
    </g>
    <g id="Group_4099" data-name="Group 4099" transform="translate(96.265 6.893)">
      <g id="Group_4098" data-name="Group 4098" clip-path="url(#clip-path-4)">
        <rect id="Rectangle_3587" data-name="Rectangle 3587" width="17.002" height="10.96" transform="translate(-2.671 0.737) rotate(-21.86)" fill="url(#linear-gradient-3)"/>
      </g>
    </g>
    <g id="Group_4101" data-name="Group 4101" transform="translate(94.902 12.838)">
      <g id="Group_4100" data-name="Group 4100" clip-path="url(#clip-path-5)">
        <rect id="Rectangle_3588" data-name="Rectangle 3588" width="19.22" height="13.023" transform="translate(-2.803 0.986) rotate(-23.06)" fill="url(#linear-gradient-4)"/>
      </g>
    </g>
    <g id="Group_4103" data-name="Group 4103" transform="translate(96.872 19.105)">
      <g id="Group_4102" data-name="Group 4102" clip-path="url(#clip-path-6)">
        <rect id="Rectangle_3589" data-name="Rectangle 3589" width="14.864" height="7.689" transform="translate(-1.016 0.309) rotate(-16.926)" fill="url(#linear-gradient-5)"/>
      </g>
    </g>
    <g id="Group_4105" data-name="Group 4105" transform="translate(0 0)">
      <g id="Group_4104" data-name="Group 4104" clip-path="url(#clip-path-7)">
        <path id="Path_135" data-name="Path 135" d="M117.282.8A2.607,2.607,0,0,1,119.9,3.5a2.656,2.656,0,0,1-5.311,0V3.416A2.709,2.709,0,0,1,117.282.8" transform="translate(-46.491 -0.325)" fill="#f58733" fill-rule="evenodd"/>
        <text id="_" data-name="®" transform="translate(113.469 12.131)" fill="#4a4a4d" font-size="9" font-family="Montserrat-Bold, Montserrat" font-weight="700"><tspan x="0" y="0">®</tspan></text>
      </g>
    </g>
  </g>
</svg>
